<?xml version="1.0" encoding="utf-8"?>
<!-- Generator: Adobe Illustrator 26.3.1, SVG Export Plug-In . SVG Version: 6.00 Build 0)  -->
<svg version="1.1" id="Layer_1" xmlns="http://www.w3.org/2000/svg" xmlns:xlink="http://www.w3.org/1999/xlink" x="0px" y="0px"
	 viewBox="0 0 216 216" style="enable-background:new 0 0 216 216;" xml:space="preserve">
<style type="text/css">
	.st0{fill:#EE202E;}
</style>
<path class="st0" d="M139.7,105.14c0.75-0.74,1.87-1.86,1.87-1.86L168.3,77l0.08-22.24l-37.01,37.08c0,0-16.45-24.62-24.66-36.91
	c-0.9,0.9-1.62,1.62-2.33,2.35c-20.69,21.26-61.08,60.8-62.22,62.52c-2.32,3.56-2.78,7.35-2.28,11.27
	c0.82,6.07,21.52,27.65,23.67,28.69c4.55,2.22,9.83,1.44,12.74,0.75c2.17-0.52,5.59-2.64,6.87-3.45c0.32-0.2,0.62-0.42,0.9-0.68
	l41.32-37.08l1.79-1.52l29.43,43.24h19.68C176.3,161.01,151.17,122.54,139.7,105.14 M76.87,142.36c-2.98,1.56-5.6,1.24-7.68-1.07
	c-3.1-3.45-6.15-6.97-9.09-10.56c-2.28-2.79-2.01-5.81,0.72-8.62c7.11-7.31,40.86-40,41.63-40.64c5.27,7.74,15.53,22.79,15.53,22.79
	S77.75,141.89,76.87,142.36"/>
</svg>
